PathFileType	4	(X/Y/Z)	C:\Users\Basilio\Documents\Thesis Gigler\squatting_fais\c3dfiles\019\SLS_back_pre3\markers_experimental.trc
DataRate	CameraRate	NumFrames	NumMarkers	Units	OrigDataRate	OrigDataStartFrame	OrigNumFrames
200.000000	200.000000	4	59	mm	200.000000	970	1552
Frame#	Time	LBHD			RBHD			C7			T10			CLAV			LSHO			LUUPA			LMUPA			LDUPA			LLEP			LMEP			LRAD			LUL			LRFIN			RSHO			RUPA1			RMUPA			RDUPA			RLEP			RMEP			RRAD			RUL			RUFIN			LASI			RASI			USACR			LSACR			RSACR			LTHI1			LTHI2			LTHI3			LTHI4			LLFC			LTIB1			LTIB2			LTIB3			LTIB4			LLMAL			LMMAL			LHEE			LMT2			LMT5			RTHI			RTHI2			RTHI4			RLFC			RTIB1			RTIB2			RTIB3			RTIB4			RLMAL			RMMAL			RHEE			RMT1			RMT2			RMT5			FHD			LMT1			RTHI3			
		X1	Y1	Z1	X2	Y2	Z2	X3	Y3	Z3	X4	Y4	Z4	X5	Y5	Z5	X6	Y6	Z6	X7	Y7	Z7	X8	Y8	Z8	X9	Y9	Z9	X10	Y10	Z10	X11	Y11	Z11	X12	Y12	Z12	X13	Y13	Z13	X14	Y14	Z14	X15	Y15	Z15	X16	Y16	Z16	X17	Y17	Z17	X18	Y18	Z18	X19	Y19	Z19	X20	Y20	Z20	X21	Y21	Z21	X22	Y22	Z22	X23	Y23	Z23	X24	Y24	Z24	X25	Y25	Z25	X26	Y26	Z26	X27	Y27	Z27	X28	Y28	Z28	X29	Y29	Z29	X30	Y30	Z30	X31	Y31	Z31	X32	Y32	Z32	X33	Y33	Z33	X34	Y34	Z34	X35	Y35	Z35	X36	Y36	Z36	X37	Y37	Z37	X38	Y38	Z38	X39	Y39	Z39	X40	Y40	Z40	X41	Y41	Z41	X42	Y42	Z42	X43	Y43	Z43	X44	Y44	Z44	X45	Y45	Z45	X46	Y46	Z46	X47	Y47	Z47	X48	Y48	Z48	X49	Y49	Z49	X50	Y50	Z50	X51	Y51	Z51	X52	Y52	Z52	X53	Y53	Z53	X54	Y54	Z54	X55	Y55	Z55	X56	Y56	Z56	X57	Y57	Z57	X58	Y58	Z58	X59	Y59	Z59	

971	4.850000000000001	-132.6673889160157	1357.742309570313	-776.209167480469	-137.9628601074219	1353.153930664063	-636.2844848632814	-190.9773254394532	1229.788208007813	-698.2128906250001	-368.1864929199219	1013.477478027344	-715.4674682617189	-83.4203567504883	1130.780395507813	-698.3695678710939	-107.9123458862305	1211.444458007813	-824.4849853515627	7.442114353179933	1170.255859375	-877.039001464844	29.78048896789551	1159.963989257813	-835.1713867187502	72.33875274658205	1159.133422851563	-878.2623291015627	141.0568542480469	1118.500244140625	-907.3764648437502	131.6969757080078	1062.052368164063	-892.5319824218752	377.4535217285157	1129.602172851563	-817.1516113281252	385.5777587890626	1081.442749023438	-860.6511840820315	451.2735595703126	1146.31396484375	-818.690612792969	-105.6156005859375	1208.994262695313	-589.0028076171876	-6.388108730316164	1138.655883789063	-480.4143371582032	21.71649551391602	1162.338500976563	-514.4639282226564	61.1641082763672	1126.997314453125	-482.9882202148439	138.1123046875	1110.611694335938	-495.153289794922	123.8235931396485	1056.732543945313	-508.9439697265626	373.2593383789063	1144.280639648438	-577.1708374023439	390.6047668457032	1095.334838867188	-532.6111450195314	458.9069824218751	1155.53759765625	-566.6932983398439	-365.0522460937501	767.6255493164064	-844.5571289062502	-341.3002319335938	766.6333618164064	-643.8198242187501	-453.0499572753907	902.0534667968752	-729.8333740234376	-477.9849548339845	878.3172607421877	-755.7388916015626	-473.6199645996095	875.3560180664065	-698.7241821289064	-463.4283752441407	553.7039184570314	-952.1606445312502	-422.2389221191407	479.857635498047	-970.5540771484377	-377.2644042968751	478.548553466797	-954.1247558593752	-447.7380676269532	423.9129028320314	-970.7581787109377	-459.1381225585939	344.3201904296876	-967.8988037109377	-570.7701416015626	265.5983276367188	-941.7299804687502	-617.1076660156251	323.2820434570313	-988.7366333007815	-618.6896362304689	285.8057861328126	-967.864685058594	-695.5336303710939	282.3436279296876	-929.8455200195315	-828.0751953125002	357.2517700195313	-945.5090942382815	-812.600280761719	335.7930297851563	-863.475524902344	-863.570251464844	415.6824951171876	-890.0649414062502	-895.7286376953127	203.7087707519532	-916.481872558594	-922.8259277343752	249.304916381836	-962.0161132812502	-354.2324218750001	635.3913574218751	-561.7164916992189	-290.1224975585938	627.3777465820314	-575.1820068359376	-249.481430053711	554.8736572265626	-579.1035156250001	-173.2358093261719	432.4651794433595	-629.8230590820314	-199.016586303711	271.8383483886719	-711.7427368164064	-279.3522338867188	216.9006347656251	-657.8593139648439	-251.4363708496094	200.9530029296876	-696.1242675781251	-285.4387512207032	182.2652740478516	-740.5944824218751	-376.7713012695313	126.4374160766602	-695.2967529296876	-362.2346191406251	138.712631225586	-773.3583984375002	-457.0696105957032	108.2230224609375	-753.3784790039064	-256.9517822265626	57.3290138244629	-782.0047607421877	-252.0540161132813	57.1698455810547	-736.4237060546876	-292.3402404785157	45.63343048095704	-682.0331420898439	-5.996848106384278	1391.235595703125	-631.8676147460939	-890.4305419921877	205.1893157958985	-877.269714355469	-275.4431457519532	654.3306884765626	-593.4514160156251	
972	4.855	-133.3621063232422	1360.39892578125	-776.1727294921877	-138.6596069335938	1355.820556640625	-636.3906860351564	-191.708984375	1232.21240234375	-698.2439575195314	-368.3885192871094	1015.721069335938	-715.4628295898439	-84.08220672607423	1133.37841796875	-698.4014892578126	-108.3638610839844	1213.8916015625	-824.5161132812502	6.522809505462648	1172.756103515625	-877.1518554687502	29.27155685424805	1162.681884765625	-835.3903808593752	71.62918853759767	1161.723510742188	-878.5490722656252	140.3093566894532	1121.044921875	-907.6228027343752	131.0524139404297	1064.61279296875	-892.612487792969	376.6681823730469	1132.37548828125	-817.215515136719	385.2823181152345	1084.118286132813	-860.9167480468752	450.5649414062501	1149.1171875	-818.7734985351565	-106.4598999023438	1210.668823242188	-588.5761108398439	-6.766656398773195	1141.201049804688	-480.3157958984376	21.23728942871094	1164.92626953125	-514.4995727539064	60.90228652954103	1129.69873046875	-483.0056152343751	138.6384582519532	1116.9189453125	-497.1214904785157	123.4186019897461	1059.30224609375	-509.0415344238282	372.7984008789063	1147.10546875	-577.1840209960939	390.3238830566407	1098.033813476563	-532.4741821289064	458.5600891113282	1158.360961914063	-566.5494995117189	-364.5023193359376	769.775817871094	-844.9088134765627	-341.0128479003907	768.6038818359377	-644.0947875976564	-453.0441284179689	904.0578613281252	-729.9084472656251	-477.726531982422	880.243835449219	-755.9561767578126	-473.1102905273439	877.2507324218752	-698.9344482421876	-462.994354248047	555.9478149414064	-952.3729248046877	-421.770965576172	482.0901489257814	-970.8272705078127	-376.6749877929688	480.8040771484376	-954.272399902344	-447.2521057128907	426.280242919922	-970.9642333984377	-458.4213867187501	346.3950805664063	-968.0203247070315	-566.8565673828126	261.9636230468751	-937.9166259765627	-616.1756591796876	324.9055480957032	-988.6746215820315	-617.3796386718751	287.1818847656251	-967.6878662109377	-694.6068725585939	283.7542419433594	-929.8502197265627	-827.1860351562502	358.4943237304688	-945.3618774414065	-811.701110839844	337.1292724609376	-863.3433227539065	-862.9820556640627	417.0230712890626	-889.9266357421877	-894.5438232421877	204.9181671142579	-916.2420654296877	-921.768981933594	250.3446044921876	-961.829528808594	-354.1443786621094	636.9940185546876	-562.0148925781251	-290.1091308593751	628.6106567382814	-575.4525756835939	-249.7394714355469	555.9448242187501	-579.1544799804689	-173.9175262451172	433.1284484863282	-629.8781127929689	-199.4662170410157	272.2123107910157	-711.7020263671876	-279.7169799804688	217.2305145263672	-657.8402099609376	-251.7488708496094	201.4125213623047	-696.0935058593751	-285.5189208984376	182.3815612792969	-740.5671386718751	-376.8862915039063	126.4459762573242	-695.2938842773439	-362.0289611816407	138.6207580566407	-773.3322753906252	-457.0751953125001	108.2149963378907	-753.2692260742189	-256.9969177246094	57.28827285766603	-782.007751464844	-252.0523376464844	57.19839096069337	-736.4232177734376	-292.2858886718751	45.57856750488282	-681.9979858398439	-6.757116317749025	1393.837646484375	-631.8576049804689	-889.3027343750002	206.4850769042969	-877.1224365234377	-275.3160400390626	655.4050292968751	-593.7529907226564	
973	4.86	-134.1618347167969	1363.098022460938	-776.0587158203127	-139.3966064453125	1358.270751953125	-636.4725952148439	-192.1560363769532	1234.759033203125	-698.2744750976564	-368.7195129394532	1017.904663085938	-715.4446411132814	-84.36787414550783	1136.081787109375	-698.6863403320314	-109.0891265869141	1216.462768554688	-824.624206542969	5.78328037261963	1175.382202148438	-877.4273071289065	28.53935050964356	1165.4404296875	-835.6794433593752	70.97977447509767	1164.383422851563	-878.7927246093752	139.6467742919922	1123.622314453125	-907.812194824219	130.4355621337891	1067.245239257813	-892.7180175781252	375.7723999023438	1135.245727539063	-817.407165527344	384.6126708984376	1086.970092773438	-861.2235107421877	449.8111877441407	1151.7958984375	-818.8159790039065	-106.7380294799805	1213.732055664063	-588.7177734375001	-7.178905487060549	1143.71484375	-480.3270568847657	20.8911190032959	1167.69677734375	-514.5070190429689	60.45523834228517	1132.384521484375	-482.9721069335939	137.3275146484375	1116.371337890625	-495.8838806152345	122.997055053711	1061.755126953125	-510.0073547363282	372.4420471191407	1149.854248046875	-576.9722290039064	390.0179443359376	1100.837768554688	-532.2982177734376	458.0698547363282	1161.117919921875	-566.4451904296876	-364.6612854003907	772.1445922851565	-845.1964111328127	-340.9359130859376	770.609558105469	-644.3348999023439	-453.1773986816407	906.1290283203127	-729.9219970703126	-478.5572204589845	882.4882812500002	-755.9108886718751	-473.707000732422	879.320739746094	-698.9572143554689	-462.4100341796876	557.9356689453126	-952.6590576171877	-421.5123901367189	484.2449951171876	-970.8778076171877	-376.1110839843751	483.062469482422	-954.5349121093752	-446.4621582031251	428.236785888672	-971.0861816406252	-457.6690368652345	348.5178833007813	-968.1362915039065	-565.9782714843751	264.0151367187501	-937.889343261719	-615.3207397460939	326.6934814453126	-988.659606933594	-616.5264282226564	289.0251159667969	-967.6204833984377	-693.6397094726564	285.5054321289063	-929.732360839844	-826.6699829101565	360.0110168457032	-945.2844848632815	-810.8778076171877	338.5987548828126	-863.2662353515627	-862.4946289062502	418.5843200683595	-889.8436279296877	-893.4221191406252	206.2084350585938	-915.9697875976565	-920.7751464843752	251.4555053710938	-961.6487426757815	-354.0824279785157	638.5480346679689	-562.3250122070314	-289.9865722656251	629.8835449218751	-575.7046508789064	-250.0284576416016	557.1191406250001	-579.3657836914064	-174.63916015625	433.8265380859376	-629.9960327148439	-199.8878021240235	272.7730102539063	-711.6730346679689	-280.0203247070313	217.4895477294922	-657.8094482421876	-252.0785064697266	201.846664428711	-696.1240234375001	-285.6574401855469	182.5400543212891	-740.5877685546876	-376.9356689453126	126.5065612792969	-695.3137817382814	-362.1958618164063	138.6795654296875	-773.3342895507815	-457.0743713378907	108.2169342041016	-753.2705688476564	-256.9746704101563	57.27415084838869	-781.9744262695315	-252.0984802246094	57.42847442626955	-736.3535766601564	-292.3745422363282	45.56097412109376	-681.9984741210939	-7.437605381011965	1396.630004882813	-631.9088745117189	-888.302185058594	208.3158111572266	-876.7581787109377	-275.1298828125001	656.5321044921876	-593.9383544921876	
974	4.865	-134.32958984375	1365.48388671875	-776.3046875000002	-139.955810546875	1360.635375976563	-636.6350097656251	-192.4686584472657	1237.3486328125	-698.3480224609376	-368.9379272460938	1020.136901855469	-715.4136352539064	-84.53536224365236	1138.647583007813	-698.4406738281251	-109.9443664550782	1219.090087890625	-824.8020629882815	5.066330909729005	1177.877075195313	-877.6497802734377	27.92753982543946	1168.18115234375	-835.880554199219	70.20272827148439	1167.0263671875	-879.1180419921877	139.0820007324219	1126.212768554688	-907.987243652344	129.8394012451172	1069.7666015625	-892.8956298828127	375.3221740722657	1137.822875976563	-817.540954589844	383.9938659667969	1089.97412109375	-861.486511230469	448.816864013672	1154.819458007813	-818.957702636719	-107.2523803710938	1216.462646484375	-588.9645385742189	-7.584154129028322	1146.47705078125	-480.407928466797	20.88894844055176	1170.166259765625	-514.4968872070314	60.07337570190431	1135.130615234375	-482.9874877929689	137.9162902832032	1122.401245117188	-497.0791320800782	122.5902709960938	1064.498779296875	-510.0264587402345	371.8576660156251	1152.70556640625	-576.8341064453126	389.6553955078126	1103.689697265625	-532.1849975585939	454.689910888672	1164.407104492188	-564.5159301757814	-364.1702270507813	774.4067382812502	-845.4937133789065	-340.7251281738282	772.4284667968752	-644.5545654296876	-453.1779174804689	908.104675292969	-729.9793701171876	-477.6230773925782	884.4396972656252	-756.0056762695314	-473.172821044922	881.5369262695315	-699.1060791015626	-461.9342651367189	560.1943359375001	-952.8145141601565	-420.2616271972657	486.5502929687501	-971.5650634765627	-375.5479125976563	485.3474121093751	-954.7588500976565	-445.9433593750001	430.545135498047	-971.3164062500002	-457.1354980468751	350.8002624511719	-968.2797851562502	-568.0283203125001	271.3323364257813	-941.846374511719	-614.4933471679689	328.4780578613282	-988.656921386719	-615.8231201171876	290.9070739746094	-967.621765136719	-692.7867431640626	287.0971069335938	-929.6213989257815	-825.8123779296877	361.3690795898438	-945.1245727539065	-810.0877685546877	340.0556335449219	-863.082214355469	-861.6383056640627	419.723114013672	-889.6464843750002	-892.5447998046877	207.5283508300782	-915.8308105468752	-919.8872070312502	252.6891784667969	-961.5069580078127	-353.9570312500001	639.9058227539064	-562.4616088867189	-289.9524536132813	631.0371093750001	-575.8927001953126	-250.1839599609376	558.0030517578126	-579.4265136718751	-175.6357116699219	434.6552124023439	-630.1482543945314	-200.2294464111329	273.1437988281251	-711.6417846679689	-280.3560180664063	217.7165069580079	-657.8674316406251	-252.2788238525391	202.1163024902344	-696.0348510742189	-285.7881774902344	182.7446899414063	-740.5418701171876	-376.9779663085938	126.5754928588867	-695.3457641601564	-362.3454589843751	138.7254028320313	-773.3067016601565	-457.0705566406251	108.2177200317383	-753.2719726562501	-256.9523010253907	57.28182220458986	-781.963806152344	-252.0192108154297	57.19221496582033	-736.4189453125001	-292.3039855957032	45.56145095825196	-681.9866333007814	-8.173490524291994	1399.466064453125	-632.0317382812501	-887.7864379882815	209.2765045166016	-876.748718261719	-274.9606018066407	657.7565917968751	-594.1339111328126	
